<?xml version="1.0" standalone="no"?>
<!DOCTYPE svg PUBLIC "-//W3C//DTD SVG 20010904//EN"
 "http://www.w3.org/TR/2001/REC-SVG-20010904/DTD/svg10.dtd">
<svg version="1.0" xmlns="http://www.w3.org/2000/svg"
 width="1000.000000pt" height="1000.000000pt" viewBox="0 0 1000.000000 1000.000000"
 preserveAspectRatio="xMidYMid meet">
<metadata>
Created by potrace 1.11, written by Peter Selinger 2001-2013
</metadata>
<g transform="translate(0.000000,1000.000000) scale(0.100000,-0.100000)"
fill="#000000" stroke="none">
<path d="M5595 6549 c-88 -14 -204 -80 -276 -157 -36 -37 -72 -84 -82 -104
-20 -41 -22 -133 -6 -193 14 -51 88 -156 136 -192 63 -49 90 -64 263 -147 14
-7 34 -18 45 -24 11 -6 49 -25 85 -42 91 -43 157 -83 187 -113 52 -52 35 -179
-30 -221 -61 -40 -279 -59 -368 -32 -54 16 -144 61 -178 87 -33 26 -101 26
-101 0 0 -10 -7 -24 -15 -31 -22 -19 -18 -34 13 -47 70 -31 223 -76 277 -83
33 -4 106 -13 163 -20 135 -17 164 -8 253 80 79 79 99 118 99 199 0 61 0 62
-62 129 -34 37 -75 76 -92 87 -17 11 -51 35 -76 54 -48 36 -156 90 -261 131
-143 56 -221 102 -255 153 -44 64 -54 137 -27 198 31 69 67 103 149 144 75 37
78 38 163 32 48 -3 110 -15 141 -27 30 -11 60 -18 67 -16 15 6 -6 68 -43 124
-26 40 -30 42 -73 41 -25 -1 -68 -5 -96 -10z"/>
<path d="M3115 6466 c-14 -21 -14 -30 -1 -87 16 -68 29 -275 47 -729 6 -151
13 -324 16 -384 l4 -108 67 7 c37 4 97 17 134 30 36 13 99 28 138 34 39 6 110
27 158 47 48 19 145 56 215 81 98 35 127 50 125 62 -6 29 -125 18 -273 -24
-252 -72 -338 -87 -365 -63 -87 76 -104 137 -96 353 3 88 1 198 -4 245 -6 47
-14 159 -20 250 -9 159 -22 256 -42 293 -14 27 -83 23 -103 -7z m82 -98 c-3
-7 -5 -2 -5 12 0 14 2 19 5 13 2 -7 2 -19 0 -25z"/>
<path d="M4266 6469 c-19 -18 -19 -25 -7 -147 6 -70 18 -163 26 -207 8 -45 15
-144 15 -225 0 -198 15 -321 44 -386 l24 -52 68 -5 c74 -6 196 -24 367 -56 73
-14 115 -18 131 -11 30 11 41 29 28 42 -5 5 -90 29 -189 54 -98 24 -208 57
-245 73 -59 27 -67 34 -85 78 -45 106 -54 189 -53 495 0 188 -3 295 -10 308
-6 11 -27 28 -48 37 -20 9 -39 18 -42 19 -3 2 -14 -6 -24 -17z"/>
<path d="M6421 6381 c-6 -11 -11 -28 -11 -38 0 -10 -7 -29 -16 -41 -16 -23
-12 -74 8 -99 5 -6 15 -51 23 -100 7 -48 22 -140 34 -203 11 -63 25 -173 31
-243 5 -71 13 -133 16 -138 3 -5 10 -69 15 -142 15 -208 33 -372 42 -369 4 1
10 2 15 2 4 0 14 12 22 28 23 42 9 336 -30 612 -6 41 -15 127 -20 190 -13 148
-35 304 -45 320 -4 7 -11 43 -15 81 -5 41 -14 74 -24 84 -9 9 -16 27 -16 40 0
32 -16 40 -29 16z"/>
<path d="M2056 6368 c-8 -13 -19 -54 -25 -93 -6 -38 -16 -92 -21 -120 -33
-161 -39 -304 -20 -460 24 -206 25 -198 -30 -201 -14 -1 -63 -7 -110 -13 -47
-6 -123 -11 -170 -11 -47 0 -152 -8 -235 -17 -82 -8 -168 -15 -190 -14 -22 0
-80 -4 -129 -10 -56 -6 -93 -6 -99 0 -5 5 -13 67 -18 138 -4 70 -12 187 -18
258 -22 296 -22 295 -43 306 -14 8 -23 8 -31 0 -7 -7 -17 -117 -25 -284 -24
-472 -20 -782 14 -972 21 -119 42 -284 64 -512 6 -57 15 -114 20 -128 16 -42
72 -25 71 22 -1 10 -5 117 -11 238 -5 121 -13 351 -16 511 -6 280 -6 292 12
297 21 6 157 23 254 32 36 3 142 17 235 31 210 30 442 54 461 47 23 -9 27 -49
22 -227 -6 -181 3 -378 21 -461 26 -117 60 -167 88 -129 16 21 17 269 2 444
-22 274 -23 341 -4 377 17 30 17 35 3 46 -13 10 -17 50 -22 242 -3 127 -9 310
-12 408 -5 127 -3 182 5 190 17 17 14 74 -5 81 -22 8 -22 8 -38 -16z"/>
<path d="M2524 6355 c-3 -14 -13 -29 -21 -33 -12 -7 -14 -50 -14 -256 0 -135
3 -251 6 -256 6 -9 13 -96 36 -415 22 -321 28 -375 47 -451 31 -125 53 -153
81 -100 14 26 9 256 -10 481 -17 207 -28 350 -34 462 -3 62 -8 118 -10 126 -3
7 -7 73 -9 147 -3 74 -9 157 -15 184 -10 45 -9 52 11 73 21 22 21 23 3 43 -26
29 -63 26 -71 -5z"/>
<path d="M7116 6305 c-3 -11 -3 -105 0 -210 3 -104 7 -302 8 -440 4 -304 29
-586 63 -722 9 -34 13 -69 10 -77 -9 -22 10 -68 36 -88 16 -12 18 -20 10 -30
-11 -14 9 -78 25 -78 15 0 139 39 205 64 101 39 160 70 282 152 187 124 252
200 331 390 85 202 88 216 87 354 -1 148 -18 231 -69 336 -34 68 -44 80 -118
133 -135 96 -208 129 -451 201 -82 24 -208 40 -307 38 -97 -3 -107 -5 -112
-23z m409 -65 c3 -5 -1 -10 -9 -10 -8 0 -18 5 -21 10 -3 6 1 10 9 10 8 0 18
-4 21 -10z m-90 -38 c68 -16 233 -88 310 -134 157 -96 180 -119 243 -245 87
-173 86 -316 -3 -493 -57 -114 -361 -411 -487 -476 -40 -21 -123 -44 -160 -44
-29 0 -29 0 -58 115 -5 22 -15 126 -20 230 -11 188 -31 445 -50 620 -35 326
-36 369 -9 428 12 26 14 27 83 22 39 -2 107 -13 151 -23z m314 -31 c20 -11 45
-22 55 -25 10 -4 16 -9 13 -12 -8 -8 -94 26 -108 42 -16 19 -3 17 40 -5z m161
-1031 c0 -5 -10 -15 -22 -21 -23 -12 -23 -12 -4 10 21 23 26 26 26 11z"/>
<path d="M9020 6096 c-3 -2 -64 -10 -135 -16 -232 -20 -292 -36 -373 -99 -18
-14 -41 -39 -52 -56 -20 -33 -48 -137 -60 -230 -4 -33 -18 -112 -30 -175 -20
-106 -22 -146 -22 -500 -1 -424 5 -487 54 -613 42 -105 86 -143 234 -198 125
-46 219 -60 434 -65 157 -4 211 -2 229 8 28 15 48 44 38 54 -3 4 -107 9 -229
11 -193 4 -236 8 -322 29 -192 47 -258 95 -296 214 -13 41 -28 84 -34 95 -6
11 -12 27 -13 35 -19 110 -23 147 -23 220 1 47 1 125 1 175 -1 49 4 94 9 99 6
6 19 1 36 -15 25 -23 31 -24 163 -24 87 0 143 4 152 11 8 6 37 14 64 17 105
12 172 26 218 46 50 22 56 31 32 51 -28 23 -478 20 -617 -5 -19 -3 -30 1 -37
13 -15 28 14 300 39 362 12 30 25 72 30 95 14 69 40 159 52 183 13 26 69 62
193 126 80 41 101 47 185 55 110 11 193 41 188 68 -2 12 -13 19 -33 20 -17 0
-39 4 -50 8 -11 3 -23 4 -25 1z m-460 -151 c0 -3 -11 -18 -25 -33 -15 -16 -25
-21 -25 -13 0 16 29 51 42 51 4 0 8 -2 8 -5z m185 -844 c26 -11 -91 -28 -153
-22 -57 4 -45 14 26 22 81 9 104 9 127 0z"/>
<path d="M4300 5170 c-119 -8 -371 -48 -469 -76 -31 -9 -90 -26 -131 -39 -41
-12 -95 -29 -120 -36 -75 -22 -156 -57 -243 -105 -72 -40 -191 -90 -501 -213
-43 -17 -86 -31 -94 -31 -9 0 -66 -25 -127 -55 -60 -30 -159 -72 -220 -94 -60
-21 -157 -58 -215 -81 -58 -23 -134 -52 -170 -65 -36 -12 -121 -44 -190 -70
-69 -26 -161 -61 -205 -77 -138 -51 -258 -100 -307 -124 -25 -13 -64 -30 -85
-38 -184 -70 -278 -114 -281 -132 -2 -11 -22 -30 -49 -44 -48 -25 -67 -50 -39
-50 8 0 31 10 52 22 29 17 40 19 55 10 25 -16 29 -15 29 7 0 15 19 27 82 51
45 18 107 44 138 60 30 15 73 33 95 40 22 7 45 16 50 20 14 11 109 45 475 170
173 59 333 115 355 124 22 10 54 23 70 30 17 8 55 22 85 31 30 10 105 43 165
73 61 30 151 70 200 89 50 19 140 54 200 78 126 50 205 75 235 75 11 0 28 4
38 9 9 5 44 19 77 31 33 12 74 28 90 36 71 32 113 45 300 88 96 23 166 39 380
91 90 22 130 25 374 30 150 3 277 7 281 10 5 3 89 -3 187 -14 98 -10 187 -19
198 -19 11 0 105 -10 210 -21 104 -12 215 -21 245 -20 230 2 351 -1 380 -11
14 -4 54 -16 90 -26 36 -9 106 -33 155 -52 50 -19 128 -49 175 -67 202 -77
289 -108 350 -125 68 -19 165 -58 640 -257 157 -66 335 -137 395 -158 323
-110 620 -246 1008 -460 38 -20 71 -34 75 -30 3 3 0 10 -8 15 -8 5 -11 12 -7
16 4 4 37 -5 75 -19 78 -31 107 -34 116 -10 10 25 -10 39 -114 76 -52 19 -126
50 -165 69 -38 20 -104 50 -145 67 -41 18 -124 54 -185 81 -125 55 -173 75
-410 172 -325 133 -440 181 -480 199 -22 10 -78 34 -125 52 -47 19 -139 58
-205 86 -200 86 -229 99 -255 106 -14 4 -30 11 -36 16 -6 5 -42 20 -80 35 -37
14 -109 45 -159 69 -123 59 -279 120 -367 144 -40 11 -91 26 -113 34 -91 33
-812 165 -995 182 -36 4 -87 10 -115 15 -67 12 -571 19 -715 10z m-785 -251
c-8 -12 -56 -32 -62 -25 -5 5 46 35 60 36 5 0 5 -5 2 -11z"/>
<path d="M8990 5050 c0 -5 7 -10 15 -10 8 0 15 5 15 10 0 6 -7 10 -15 10 -8 0
-15 -4 -15 -10z"/>
<path d="M5018 4713 c-8 -10 -24 -43 -36 -74 -11 -31 -45 -94 -75 -140 -93
-144 -127 -166 -156 -104 -35 76 -121 165 -159 165 -5 0 -26 -29 -47 -65 -44
-75 -130 -175 -151 -175 -8 0 -46 64 -89 153 -78 155 -104 195 -124 183 -31
-19 12 -135 120 -321 16 -27 29 -60 29 -73 0 -12 7 -25 15 -28 28 -11 147 65
212 134 71 77 64 79 128 -40 60 -113 99 -115 166 -11 97 153 132 210 155 255
13 25 29 48 36 50 7 3 14 16 15 29 1 13 5 36 9 52 5 22 3 27 -13 27 -11 0 -27
-8 -35 -17z"/>
<path d="M3799 4642 c-225 -110 -276 -210 -213 -421 16 -56 34 -94 50 -108 64
-58 243 -70 339 -23 55 27 73 60 33 60 -13 0 -28 4 -34 10 -6 6 -25 4 -54 -6
-60 -21 -180 -30 -207 -15 -14 7 -24 25 -28 51 -4 22 -13 47 -22 55 -33 34
-13 48 110 76 111 26 147 40 147 60 0 5 -7 9 -15 9 -8 0 -24 5 -35 12 -24 15
-124 -3 -183 -33 -46 -24 -67 -19 -67 16 0 28 31 95 52 112 7 6 42 23 78 38
51 22 125 64 159 92 7 5 -31 43 -43 43 -6 -1 -36 -13 -67 -28z"/>
<path d="M5326 4627 c-21 -32 -82 -228 -121 -387 -24 -97 -24 -95 14 -95 44
-1 54 17 81 135 12 52 28 112 36 133 8 20 14 53 14 71 0 27 7 40 31 59 39 30
35 63 -11 89 -29 17 -31 16 -44 -5z"/>
<path d="M5693 4403 c-25 -28 -70 -100 -107 -173 -85 -167 -84 -162 -39 -183
45 -20 56 -13 98 66 36 67 146 206 163 206 21 1 149 -126 179 -178 47 -82 167
-261 173 -261 15 0 41 41 98 150 33 63 69 133 80 155 51 97 64 146 43 159 -21
13 -39 -12 -101 -137 -104 -214 -117 -227 -147 -159 -22 47 -108 165 -192 262
-35 41 -73 89 -84 107 -20 35 -35 41 -55 21 -9 -9 -18 -9 -38 1 -25 11 -29 9
-71 -36z m44 -55 c-7 -13 -27 -43 -45 -68 -19 -25 -37 -52 -42 -60 -5 -8 -12
-12 -15 -8 -9 9 24 66 68 119 36 43 52 51 34 17z"/>
<path d="M3080 4371 c-61 -10 -139 -60 -194 -127 -58 -70 -61 -112 -16 -214
17 -38 30 -79 31 -92 0 -13 13 -54 28 -93 24 -57 33 -71 53 -73 14 -2 31 4 38
13 11 13 10 20 -8 45 -19 25 -51 120 -94 273 -8 28 -8 49 1 77 11 36 16 40
116 84 117 51 146 55 175 26 46 -46 15 -115 -95 -213 -66 -59 -81 -92 -52
-116 25 -20 186 -101 252 -126 71 -26 98 -24 93 8 -3 22 -35 43 -153 100 -38
19 -81 46 -95 61 l-24 27 47 40 c84 72 124 162 105 237 -9 36 -17 47 -44 58
-35 15 -87 16 -164 5z"/>
<path d="M6782 4235 c-88 -25 -181 -101 -218 -180 -60 -126 2 -274 153 -368
59 -36 106 -46 187 -40 45 4 76 2 79 -4 4 -6 -5 -39 -19 -73 -35 -87 -20 -100
42 -36 48 50 68 89 109 212 36 106 34 136 -11 171 -34 26 -44 27 -160 31 -73
3 -124 1 -124 -5 0 -5 12 -18 28 -30 21 -16 47 -21 115 -25 48 -2 90 -7 93
-11 4 -4 0 -24 -8 -44 -9 -21 -20 -51 -24 -68 -8 -24 -16 -30 -39 -32 -17 -1
-64 -4 -105 -8 -62 -5 -81 -3 -110 12 -19 10 -37 27 -39 38 -1 11 -19 46 -38
79 -36 58 -36 58 -23 115 22 98 34 118 80 132 32 10 46 10 61 1 31 -20 139
-15 176 7 27 17 31 24 24 47 -4 15 -24 41 -44 57 -44 36 -107 44 -185 22z
m-168 -212 c-4 -21 -10 -45 -15 -53 -16 -31 -21 16 -5 54 19 47 29 46 20 -1z"/>
<path d="M2275 4085 c-111 -57 -138 -73 -147 -90 -5 -8 -15 -15 -23 -15 -8 0
-16 -4 -19 -9 -7 -11 21 -99 62 -202 17 -41 33 -89 36 -108 9 -53 48 -96 103
-114 26 -9 49 -14 52 -12 2 3 -10 33 -27 67 -45 94 -122 274 -122 287 0 14 23
65 48 106 14 22 26 30 48 30 19 1 29 6 29 15 0 18 101 26 125 11 13 -9 13 -13
-1 -38 -9 -15 -19 -39 -22 -53 -4 -14 -27 -48 -52 -77 -51 -58 -60 -88 -20
-73 71 27 201 4 240 -41 25 -30 25 -31 8 -61 -36 -61 -80 -101 -173 -156 -86
-52 -124 -92 -87 -92 59 0 271 143 307 208 8 15 23 38 32 51 16 23 16 26 -8
71 -14 26 -33 54 -42 62 -24 20 -140 40 -163 28 -45 -25 -49 -9 -9 41 41 52
67 117 57 143 -10 26 -50 45 -107 51 -49 5 -62 2 -125 -30z"/>
<path d="M5470 4035 c0 -16 6 -25 15 -25 9 0 15 9 15 25 0 16 -6 25 -15 25 -9
0 -15 -9 -15 -25z"/>
<path d="M5540 4020 c0 -5 5 -10 10 -10 6 0 10 5 10 10 0 6 -4 10 -10 10 -5 0
-10 -4 -10 -10z"/>
<path d="M4022 3799 c-65 -32 -135 -101 -158 -156 -8 -18 -14 -65 -14 -106 0
-64 4 -79 29 -120 47 -73 90 -90 237 -91 107 -1 124 1 143 18 28 25 27 31 -13
54 -27 16 -41 18 -77 11 -61 -11 -157 -11 -179 1 -32 17 -60 75 -66 136 -5 51
-3 63 16 87 38 48 128 99 179 102 56 3 113 30 109 52 -3 17 -75 43 -119 43
-14 0 -53 -14 -87 -31z"/>
<path d="M4487 3742 c-26 -35 -40 -67 -48 -108 l-11 -58 36 -33 c41 -37 72
-48 120 -39 46 9 119 67 141 111 16 36 16 39 -1 77 -26 58 -71 89 -141 95
l-58 5 -38 -50z m152 -48 c28 -36 26 -52 -11 -91 -50 -52 -113 -45 -124 13 -7
40 4 57 55 84 48 25 56 25 80 -6z"/>
<path d="M5675 3628 c-223 -7 -309 -17 -368 -42 -36 -15 -49 -35 -24 -37 40
-4 913 3 965 7 53 5 62 9 62 26 0 18 -6 19 -86 17 -75 -3 -88 -1 -100 15 -12
17 -28 19 -126 20 -62 1 -207 -2 -323 -6z"/>
<path d="M3240 3461 c-78 -5 -95 -9 -98 -23 -5 -26 57 -38 188 -37 187 2 254
11 258 33 2 10 -2 22 -10 27 -14 9 -179 9 -338 0z"/>
<path d="M4824 3426 c18 -14 17 -16 -8 -39 -14 -13 -26 -34 -26 -47 0 -19 4
-22 29 -17 15 3 33 1 39 -5 9 -9 21 -4 49 18 78 63 68 90 -37 100 -59 5 -63 4
-46 -10z"/>
</g>
</svg>
