<?xml version="1.0" standalone="no"?>
<!DOCTYPE svg PUBLIC "-//W3C//DTD SVG 20010904//EN"
 "http://www.w3.org/TR/2001/REC-SVG-20010904/DTD/svg10.dtd">
<svg version="1.0" xmlns="http://www.w3.org/2000/svg"
 width="260.000000pt" height="260.000000pt" viewBox="0 0 260.000000 260.000000"
 preserveAspectRatio="xMidYMid meet">
<metadata>
Created by potrace 1.11, written by Peter Selinger 2001-2013
</metadata>
<g transform="translate(0.000000,260.000000) scale(0.100000,-0.100000)"
fill="#000000" stroke="none">
<path d="M1429 2083 c-46 -39 -69 -96 -69 -173 0 -88 22 -131 113 -225 80 -83
92 -111 75 -172 -16 -60 -81 -72 -130 -23 -35 35 -44 37 -51 10 -6 -25 33 -55
98 -74 39 -12 47 -12 60 1 53 52 63 148 26 222 -13 24 -56 76 -96 115 -60 59
-74 78 -79 112 -10 57 2 110 31 145 28 33 58 37 85 12 18 -16 18 -15 14 21 -9
65 -26 72 -77 29z"/>
<path d="M817 1818 c3 -139 8 -294 12 -345 l6 -92 48 23 c26 13 74 43 107 67
76 55 65 74 -19 30 -33 -17 -69 -31 -80 -31 -30 0 -41 75 -41 283 0 221 -8
317 -26 317 -10 0 -11 -52 -7 -252z"/>
<path d="M1108 2060 c-1 -5 0 -54 3 -107 4 -54 8 -156 9 -228 3 -140 9 -189
25 -188 6 1 38 -9 72 -22 34 -13 64 -21 67 -18 15 15 3 29 -37 46 -98 41 -107
70 -107 338 0 131 -3 169 -14 178 -9 8 -15 8 -18 1z"/>
<path d="M524 1923 c-4 -54 -6 -157 -5 -230 1 -78 -2 -134 -8 -137 -9 -6 -121
-23 -208 -32 l-43 -4 0 139 c0 151 -8 234 -21 225 -19 -12 -4 -864 17 -973 13
-63 17 12 15 268 l-2 280 43 11 c24 5 68 17 98 25 30 8 69 16 85 18 l30 2 1
-172 c2 -182 10 -267 24 -258 5 3 7 111 4 253 -2 136 -6 345 -7 464 -1 120 -5
218 -8 218 -4 0 -10 -44 -15 -97z"/>
<path d="M656 2005 c-14 -38 4 -737 20 -779 15 -40 19 13 12 206 -4 111 -9
288 -12 392 -3 103 -7 190 -9 193 -3 2 -7 -3 -11 -12z"/>
<path d="M1666 1995 c-4 -17 -2 -72 4 -121 9 -80 29 -444 30 -531 0 -18 5 -33
10 -33 6 0 10 28 10 63 0 106 -30 592 -39 623 l-8 29 -7 -30z"/>
<path d="M1850 1775 c0 -217 16 -557 28 -585 3 -8 6 -24 6 -34 1 -34 24 -29
72 16 111 101 165 251 165 454 0 62 -6 134 -12 160 -26 106 -136 204 -229 204
l-30 0 0 -215z m83 152 c33 -14 99 -83 122 -127 7 -14 21 -61 30 -104 20 -100
8 -197 -36 -299 -51 -117 -124 -215 -145 -195 -8 8 -20 224 -30 521 -8 241
-10 232 59 204z m112 -45 c3 -8 -4 -6 -20 5 -13 10 -25 21 -25 26 0 11 39 -16
45 -31z"/>
<path d="M2315 1863 c-107 -24 -118 -45 -135 -263 -15 -178 -9 -575 9 -632 21
-68 109 -121 187 -114 77 8 72 36 -6 36 -71 0 -130 31 -148 77 -21 52 -32 146
-32 266 0 108 1 117 16 103 20 -21 38 -20 97 2 51 20 75 38 64 49 -6 6 -129 6
-160 0 -15 -3 -14 83 4 237 12 107 13 111 52 153 24 26 48 43 62 43 12 0 30 8
39 19 15 17 15 19 1 25 -17 6 -18 6 -50 -1z m-91 -88 c-4 -8 -8 -15 -10 -15
-2 0 -4 7 -4 15 0 8 4 15 10 15 5 0 7 -7 4 -15z m56 -425 c0 -5 -14 -10 -31
-10 -17 0 -28 4 -24 10 3 6 17 10 31 10 13 0 24 -4 24 -10z"/>
<path d="M1058 1371 c-72 -24 -118 -52 -194 -121 -87 -79 -193 -164 -375 -301
-157 -119 -269 -219 -269 -240 0 -8 5 -7 15 1 8 7 15 9 15 4 0 -5 7 2 16 14
18 25 128 115 194 158 63 41 194 140 211 160 17 20 125 104 135 104 4 0 26 16
49 35 24 19 80 52 127 73 112 53 214 62 338 33 47 -11 110 -20 142 -20 65 0
95 -13 182 -80 34 -26 79 -59 101 -74 22 -15 72 -54 110 -88 39 -34 112 -93
164 -132 51 -38 129 -107 173 -151 45 -45 85 -80 91 -78 5 2 18 -5 28 -14 18
-16 19 -16 19 2 0 10 -13 28 -29 39 -16 11 -78 63 -138 115 -61 52 -154 132
-209 176 -54 45 -146 123 -204 173 -113 99 -180 137 -340 192 -122 42 -262 50
-352 20z m-146 -123 c-7 -7 -12 -8 -12 -2 0 14 12 26 19 19 2 -3 -1 -11 -7
-17z"/>
<path d="M1306 1149 c-2 -8 -15 -49 -27 -92 -23 -81 -35 -100 -45 -70 -3 10
-12 34 -21 53 -17 39 -15 42 -49 -53 -20 -57 -24 -52 -49 56 -10 42 -22 77
-26 77 -13 0 -11 -11 16 -114 14 -52 25 -97 25 -102 0 -17 41 32 52 62 7 19
15 34 19 34 4 0 12 -21 18 -46 19 -76 35 -53 81 118 12 44 19 82 16 85 -3 3
-8 0 -10 -8z"/>
<path d="M971 1093 c-40 -48 -45 -67 -39 -164 5 -86 23 -119 63 -119 23 0 63
36 52 47 -4 3 -23 2 -42 -4 -40 -13 -40 -12 -49 42 -7 40 -6 41 30 58 26 13
34 21 26 29 -11 11 -52 2 -52 -13 0 -5 -5 -9 -11 -9 -25 0 0 73 38 112 26 27
34 41 26 49 -7 7 -20 -1 -42 -28z"/>
<path d="M1372 1038 c-21 -140 -25 -194 -13 -182 6 6 16 53 22 105 6 52 15 99
20 105 10 12 2 44 -11 44 -4 0 -12 -33 -18 -72z"/>
<path d="M1479 988 c-5 -10 -18 -50 -28 -90 -10 -40 -21 -80 -23 -88 -3 -8 -3
-12 -1 -8 2 4 10 5 18 2 9 -4 16 6 20 27 4 18 16 54 27 79 l20 45 19 -39 c10
-22 29 -71 41 -110 12 -39 25 -75 28 -79 8 -9 60 179 60 214 -1 37 -14 6 -35
-83 -10 -42 -22 -75 -27 -72 -4 3 -8 13 -8 22 0 9 -16 58 -36 108 -36 92 -55
110 -75 72z m6 -54 c-8 -20 -15 -39 -15 -42 0 -3 -3 -3 -6 0 -6 7 22 78 31 78
3 0 -2 -16 -10 -36z"/>
<path d="M787 959 c-42 -32 -52 -83 -37 -188 7 -49 16 -95 21 -102 15 -24 21
-1 10 38 -6 21 -14 72 -17 113 l-6 75 31 23 c56 41 67 3 26 -86 -28 -60 -26
-68 28 -120 50 -48 61 -22 12 28 -40 41 -40 39 -10 120 18 50 13 105 -11 114
-21 8 -18 9 -47 -15z"/>
<path d="M1749 888 c-48 -51 -62 -135 -35 -211 19 -52 44 -77 78 -77 29 0 31
-8 12 -67 -2 -7 1 -13 6 -13 11 0 26 48 40 127 14 81 4 103 -47 103 -30 0 -34
-2 -23 -15 7 -8 24 -15 37 -15 19 0 24 -4 19 -16 -3 -9 -6 -26 -6 -39 0 -26
-43 -43 -64 -26 -21 18 -37 102 -28 151 7 43 9 45 42 45 29 0 36 4 38 23 4 26
-13 52 -34 52 -7 0 -23 -10 -35 -22z m-32 -120 c-3 -7 -5 -2 -5 12 0 14 2 19
5 13 2 -7 2 -19 0 -25z"/>
<path d="M571 802 l-31 -39 19 -100 c10 -55 21 -105 25 -111 11 -18 29 -14 22
4 -4 9 -13 51 -22 92 -21 104 -8 162 37 162 21 0 19 -23 -7 -89 -18 -43 -18
-42 10 -35 23 5 56 -16 56 -37 0 -20 -28 -75 -55 -107 -30 -36 -27 -56 5 -27
36 32 71 117 64 153 -7 34 -36 58 -55 46 -8 -4 -9 1 -3 17 5 13 9 42 9 64 0
57 -31 60 -74 7z"/>
<path d="M1042 668 c-43 -47 -55 -137 -28 -203 13 -31 20 -35 50 -35 38 0 49
10 40 34 -4 11 -11 13 -21 7 -39 -21 -63 8 -63 77 0 37 27 92 46 92 6 0 17 7
25 16 10 13 10 17 -2 25 -20 12 -23 12 -47 -13z"/>
<path d="M1164 635 c-17 -41 -18 -69 -4 -96 15 -28 37 -23 55 11 18 35 19 60
3 95 -16 35 -36 31 -54 -10z m46 -34 c0 -35 -26 -62 -36 -37 -9 24 4 66 21 66
10 0 15 -10 15 -29z"/>
<path d="M1433 583 c-35 -3 -75 -27 -62 -36 10 -8 269 6 269 14 0 5 -11 9 -25
9 -14 0 -25 5 -25 10 0 10 -67 11 -157 3z"/>
<path d="M820 485 c0 -12 13 -15 55 -15 42 0 55 3 55 15 0 12 -13 15 -55 15
-42 0 -55 -3 -55 -15z"/>
<path d="M1256 468 c-9 -33 -8 -38 8 -38 16 0 31 34 21 50 -10 17 -22 11 -29
-12z"/>
</g>
</svg>
